<svg viewBox="0 0 512 512"  xmlns="http://www.w3.org/2000/svg"><path d="m372 342c0 5.523438-4.476562 10-10 10s-10-4.476562-10-10 4.476562-10 10-10 10 4.476562 10 10zm0 0"/><path d="m502 492h-20c-5.515625 0-10-4.484375-10-10 0-9.566406 0-300.132812 0-310h10c3.832031 0 7.328125-2.191406 9-5.640625s1.222656-7.546875-1.152344-10.554687l-120-152c-3.988281-5.054688-11.679687-5.085938-15.695312 0l-120 152c-2.375 3.007812-2.820313 7.105468-1.148438 10.554687 1.667969 3.449219 5.164063 5.640625 8.996094 5.640625h10v101.386719c-77.230469 1.253906-97.519531 33.769531-120.882812 71.152343l-51.714844 82.757813c-1.84375 2.945313-5.011719 4.703125-8.480469 4.703125h-28.921875c-5.523438 0-10 4.476562-10 10v60c0 5.523438 4.476562 10 10 10h26.75c24.285156 0 46.476562-12.296875 59.359375-32.898438l61.171875-97.882812c17.546875-28.082031 46.398438-29.9375 62.71875-29.558594v130.339844c0 5.515625-4.484375 10-10 10h-20c-5.523438 0-10 4.476562-10 10s4.476562 10 10 10h20c16.542969 0 30-13.457031 30-30v-130h20v150c0 5.523438 4.476562 10 10 10s10-4.476562 10-10v-30h100v30c0 5.523438 4.476562 10 10 10s10-4.476562 10-10v-150h20v130c0 16.542969 13.457031 30 30 30h20c5.523438 0 10-4.476562 10-10s-4.476562-10-10-10zm-140-465.859375 99.363281 125.859375h-198.726562zm-189.679688 344.480469-61.167968 97.875c-9.207032 14.71875-25.054688 23.503906-42.402344 23.503906h-16.75v-40h18.921875c10.402344 0 19.914063-5.269531 25.4375-14.101562l51.71875-82.757813c22.644531-36.230469 37.976563-60.710937 103.921875-61.761719v38.273438c-19.433594-.414063-56.617188 2.058594-79.679688 38.96875zm139.679688 81.378906v-40h100v40zm100-60h-100v-40h5c5.523438 0 10-4.476562 10-10s-4.476562-10-10-10h-45v-160h180v160h-45c-5.523438 0-10 4.476562-10 10s4.476562 10 10 10h5zm0 0"/><path d="m422 252c0-33.085938-26.914062-60-60-60s-60 26.914062-60 60 26.914062 60 60 60 60-26.914062 60-60zm-100 0c0-22.054688 17.945312-40 40-40s40 17.945312 40 40-17.945312 40-40 40-40-17.945312-40-40zm0 0"/><path d="m0 90c0 16.542969 13.457031 30 30 30h160c16.542969 0 30-13.457031 30-30s-13.457031-30-30-30h-11.003906c-4.644532-22.792969-24.851563-40-48.996094-40-6.125 0-12.125 1.109375-17.753906 3.25-9.027344-14.242188-24.882813-23.25-42.246094-23.25-27.570312 0-50 22.429688-50 50 0 3.816406.460938 7.601562 1.316406 11.285156-12.320312 3.734375-21.316406 15.191406-21.316406 28.714844zm70-70c10.429688 0 19.941406 5.414062 25.355469 13.964844-7.324219 7.039062-12.328125 16.113281-14.347657 26.035156h-39.289062c-1.125-3.195312-1.71875-6.578125-1.71875-10 0-16.542969 13.457031-30 30-30zm-40 60h60c5.523438 0 10-4.476562 10-10 0-16.414062 13.277344-30 30-30 16.542969 0 30 13.457031 30 30 0 5.523438 4.476562 10 10 10h20c5.515625 0 10 4.484375 10 10s-4.484375 10-10 10h-160c-5.515625 0-10-4.484375-10-10s4.484375-10 10-10zm0 0"/></svg>