<svg id="svg" xmlns="http://www.w3.org/2000/svg" xmlns:xlink="http://www.w3.org/1999/xlink" width="400" height="400" viewBox="0, 0, 400,400"><g id="svgg"><path id="path0" d="M306.667 146.333 L 306.667 162.667 309.667 162.667 L 312.667 162.667 312.667 158.184 L 312.667 153.701 313.781 152.850 C 315.362 151.645,315.191 151.488,318.641 157.339 L 321.782 162.667 324.927 162.667 C 327.306 162.667,328.032 162.565,327.910 162.250 C 327.822 162.021,325.846 158.778,323.520 155.044 C 319.323 148.305,319.296 148.249,319.915 147.544 C 320.258 147.153,321.885 145.333,323.531 143.500 C 328.019 138.499,327.934 138.996,324.291 139.023 L 321.167 139.045 317.000 143.914 L 312.833 148.782 312.745 139.391 L 312.656 130.000 309.661 130.000 L 306.667 130.000 306.667 146.333 M41.667 133.176 C 41.667 133.286,43.635 139.104,46.041 146.105 C 48.447 153.105,50.712 159.701,51.075 160.762 L 51.736 162.690 54.909 162.595 L 58.082 162.500 63.041 148.005 C 65.768 140.033,68.000 133.396,68.000 133.255 C 68.000 132.655,61.719 132.973,61.539 133.583 C 61.444 133.904,60.093 138.442,58.538 143.667 C 56.982 148.892,55.534 153.841,55.320 154.664 L 54.931 156.162 52.812 148.998 C 51.646 145.057,50.107 139.883,49.391 137.500 L 48.089 133.167 44.878 133.071 C 43.112 133.019,41.667 133.066,41.667 133.176 M218.667 147.796 L 218.667 162.667 221.833 162.667 L 225.000 162.667 225.000 157.500 L 225.000 152.333 227.250 152.327 C 236.282 152.300,240.456 149.144,240.469 142.333 C 240.482 135.352,237.194 133.305,225.583 133.067 L 218.667 132.924 218.667 147.796 M231.761 138.454 C 233.436 139.163,234.097 140.132,234.241 142.088 C 234.516 145.814,232.686 147.332,227.917 147.333 L 225.000 147.333 225.000 142.667 L 225.000 138.000 227.844 138.000 C 229.497 138.000,231.137 138.190,231.761 138.454 M81.577 138.668 C 74.771 139.861,71.121 146.894,73.181 154.847 C 75.334 163.156,86.912 165.844,92.744 159.389 C 94.843 157.065,94.901 156.738,93.251 156.521 C 89.740 156.057,89.198 156.116,88.623 157.027 C 86.045 161.102,79.638 158.754,79.100 153.536 L 78.907 151.667 86.953 151.667 L 95.000 151.667 95.000 150.545 C 95.000 142.485,89.180 137.335,81.577 138.668 M139.167 138.654 C 135.715 139.192,133.202 141.034,132.335 143.663 C 131.781 145.341,131.623 145.243,135.085 145.382 L 138.003 145.500 138.361 144.418 C 139.175 141.951,143.014 141.424,144.140 143.624 C 144.553 144.432,145.210 147.992,144.948 148.006 C 144.885 148.010,143.258 148.093,141.333 148.191 C 133.496 148.591,130.892 150.452,130.871 155.670 C 130.843 162.945,139.834 165.717,144.156 159.766 C 145.224 158.295,145.667 158.018,145.667 158.822 C 145.667 161.646,148.917 163.267,152.958 162.458 C 154.567 162.137,154.587 159.028,152.980 159.074 C 150.969 159.131,150.853 158.722,150.649 150.905 C 150.546 146.952,150.303 143.458,150.098 142.981 C 148.668 139.651,144.175 137.873,139.167 138.654 M168.004 138.697 C 163.202 139.538,160.525 142.559,161.145 146.438 C 161.738 150.147,163.802 151.451,171.799 153.169 C 174.779 153.809,176.000 154.707,176.000 156.260 C 176.000 159.525,167.751 160.209,165.915 157.097 L 165.228 155.934 163.031 156.167 C 159.837 156.507,159.762 156.635,161.317 159.088 C 165.469 165.634,180.750 163.509,181.270 156.313 C 181.615 151.546,179.985 150.046,172.378 148.130 C 167.559 146.916,166.583 146.361,166.583 144.833 C 166.583 141.788,174.085 141.321,175.315 144.290 C 175.682 145.175,175.743 145.193,177.596 144.961 C 178.643 144.830,179.840 144.710,180.254 144.695 C 180.996 144.667,181.000 144.645,180.488 143.417 C 178.930 139.682,173.690 137.701,168.004 138.697 M255.500 138.654 C 252.049 139.192,249.535 141.034,248.668 143.663 C 248.114 145.341,247.956 145.243,251.418 145.382 L 254.337 145.500 254.694 144.418 C 255.508 141.951,259.347 141.424,260.473 143.624 C 260.887 144.432,261.543 147.992,261.281 148.006 C 261.218 148.010,259.592 148.093,257.667 148.191 C 249.829 148.591,247.225 150.452,247.205 155.670 C 247.176 162.945,256.167 165.717,260.489 159.766 C 261.558 158.295,262.000 158.018,262.000 158.822 C 262.000 161.646,265.250 163.267,269.292 162.458 C 270.901 162.137,270.921 159.028,269.313 159.074 C 267.303 159.131,267.186 158.722,266.982 150.905 C 266.879 146.952,266.636 143.458,266.432 142.981 C 265.001 139.651,260.509 137.873,255.500 138.654 M290.885 138.666 C 288.695 139.056,286.966 140.277,285.985 142.127 C 285.113 143.770,284.667 144.071,284.667 143.016 C 284.667 142.659,284.504 141.609,284.306 140.683 L 283.945 139.000 281.096 139.000 L 278.248 139.000 278.485 140.417 C 279.210 144.764,279.321 146.574,279.327 154.250 L 279.333 162.667 282.333 162.667 L 285.333 162.667 285.333 156.561 C 285.333 145.841,287.470 142.870,294.750 143.470 L 297.333 143.682 297.333 141.174 L 297.333 138.667 296.380 138.667 C 295.855 138.667,294.768 138.602,293.963 138.523 C 293.158 138.443,291.773 138.508,290.885 138.666 M342.337 138.697 C 337.535 139.538,334.858 142.559,335.478 146.438 C 336.071 150.147,338.135 151.451,346.132 153.169 C 349.112 153.809,350.333 154.707,350.333 156.260 C 350.333 159.525,342.084 160.209,340.248 157.097 L 339.562 155.934 337.364 156.167 C 334.171 156.507,334.095 156.635,335.651 159.088 C 339.802 165.634,355.083 163.509,355.604 156.313 C 355.948 151.546,354.318 150.046,346.711 148.130 C 341.892 146.916,340.917 146.361,340.917 144.833 C 340.917 141.788,348.419 141.321,349.649 144.290 C 350.015 145.175,350.076 145.193,351.929 144.961 C 352.977 144.830,354.173 144.710,354.588 144.695 C 355.329 144.667,355.333 144.645,354.821 143.417 C 353.263 139.682,348.023 137.701,342.337 138.697 M109.000 138.975 C 102.556 140.295,99.809 151.980,104.284 159.035 C 106.860 163.097,113.973 163.211,116.605 159.234 C 117.693 157.591,117.803 157.897,117.600 161.985 C 117.379 166.415,116.043 168.333,113.177 168.333 C 111.383 168.333,109.377 166.981,109.344 165.750 C 109.323 164.944,103.333 165.460,103.333 166.268 C 103.333 171.148,113.192 173.962,119.072 170.762 C 123.212 168.509,123.452 167.509,123.592 151.917 L 123.709 139.000 120.898 139.000 L 118.086 139.000 117.857 141.023 L 117.628 143.047 116.652 141.699 C 115.064 139.507,111.900 138.381,109.000 138.975 M86.230 142.649 C 87.693 143.313,88.689 144.767,89.152 146.917 L 89.386 148.000 84.193 148.000 C 78.403 148.000,78.562 148.078,79.379 145.633 C 80.396 142.589,83.306 141.321,86.230 142.649 M115.228 143.510 C 118.447 145.619,118.420 155.399,115.190 157.516 C 111.581 159.880,108.500 156.726,108.500 150.667 C 108.500 144.283,111.515 141.076,115.228 143.510 M144.825 153.083 C 144.031 158.934,137.688 161.203,137.085 155.852 C 136.710 152.533,138.055 151.367,142.281 151.347 L 145.063 151.333 144.825 153.083 M261.158 153.083 C 260.364 158.934,254.021 161.203,253.418 155.852 C 253.044 152.533,254.389 151.367,258.615 151.347 L 261.396 151.333 261.158 153.083 M199.300 185.917 C 199.118 186.421,198.559 187.883,198.059 189.167 L 197.150 191.500 194.159 191.744 C 192.513 191.878,190.877 192.028,190.523 192.077 C 189.971 192.154,192.866 194.866,195.135 196.397 C 195.432 196.598,194.535 200.885,193.790 202.826 C 193.457 203.693,194.274 203.395,196.968 201.667 C 198.397 200.750,199.672 200.000,199.802 200.000 C 199.931 200.000,201.206 200.750,202.635 201.667 C 206.077 203.875,206.102 203.862,205.149 200.417 C 204.069 196.513,203.999 196.759,206.831 194.496 C 208.205 193.398,209.330 192.409,209.331 192.297 C 209.334 192.064,205.888 191.667,203.862 191.667 L 202.489 191.667 201.216 188.333 C 199.811 184.652,199.774 184.607,199.300 185.917 M40.000 196.333 L 40.000 200.000 110.000 200.000 L 180.000 200.000 180.000 196.333 L 180.000 192.667 110.000 192.667 L 40.000 192.667 40.000 196.333 M220.000 196.333 L 220.000 200.000 290.000 200.000 L 360.000 200.000 360.000 196.333 L 360.000 192.667 290.000 192.667 L 220.000 192.667 220.000 196.333 M188.765 225.750 C 186.944 227.746,170.250 253.360,170.250 254.159 C 170.250 255.503,171.253 256.384,172.650 256.266 C 173.810 256.169,173.992 255.929,182.000 243.952 C 186.492 237.234,190.279 231.684,190.416 231.618 C 190.553 231.553,193.674 235.771,197.351 240.991 C 204.505 251.150,204.369 250.987,205.750 250.995 C 207.972 251.007,208.576 248.914,206.976 246.739 C 205.779 245.112,205.637 245.454,209.260 241.255 L 212.060 238.011 218.896 246.922 C 227.205 257.754,227.596 258.076,229.442 255.593 C 230.390 254.318,230.425 254.375,221.639 242.964 C 211.524 229.828,212.585 230.272,207.000 236.835 C 205.075 239.097,203.350 240.952,203.167 240.956 C 202.983 240.961,200.508 237.641,197.667 233.580 C 191.060 224.138,190.603 223.736,188.765 225.750 M171.438 262.333 C 169.913 262.953,169.570 264.813,170.771 265.942 L 171.543 266.667 200.081 266.667 L 228.618 266.667 229.309 265.788 C 230.168 264.697,230.182 263.965,229.363 262.954 L 228.726 262.167 200.446 262.102 C 184.545 262.065,171.848 262.166,171.438 262.333 M170.818 272.485 C 170.368 272.935,170.000 273.617,170.000 274.000 C 170.000 274.383,170.368 275.065,170.818 275.515 L 171.636 276.333 200.000 276.333 L 228.364 276.333 229.182 275.515 C 229.632 275.065,230.000 274.383,230.000 274.000 C 230.000 273.617,229.632 272.935,229.182 272.485 L 228.364 271.667 200.000 271.667 L 171.636 271.667 170.818 272.485 " stroke="none" fill="#ececec" fill-rule="evenodd"></path><path id="path1" d="M306.488 146.333 C 306.488 155.408,306.531 159.121,306.583 154.583 C 306.635 150.046,306.635 142.621,306.583 138.083 C 306.531 133.546,306.488 137.258,306.488 146.333 M292.587 143.569 C 293.002 143.649,293.602 143.646,293.921 143.562 C 294.239 143.479,293.900 143.414,293.167 143.417 C 292.433 143.421,292.173 143.489,292.587 143.569 M134.083 145.563 C 134.404 145.647,134.929 145.647,135.250 145.563 C 135.571 145.479,135.308 145.411,134.667 145.411 C 134.025 145.411,133.762 145.479,134.083 145.563 M250.417 145.563 C 250.737 145.647,251.262 145.647,251.583 145.563 C 251.904 145.479,251.642 145.411,251.000 145.411 C 250.358 145.411,250.096 145.479,250.417 145.563 M279.145 154.333 C 279.145 159.008,279.192 160.921,279.249 158.583 C 279.306 156.246,279.306 152.421,279.249 150.083 C 279.192 147.746,279.145 149.658,279.145 154.333 M108.429 150.500 C 108.431 151.417,108.496 151.752,108.573 151.245 C 108.649 150.739,108.647 149.989,108.568 149.579 C 108.489 149.169,108.426 149.583,108.429 150.500 M74.917 192.583 C 94.212 192.631,125.787 192.631,145.083 192.583 C 164.379 192.536,148.592 192.497,110.000 192.497 C 71.408 192.497,55.621 192.536,74.917 192.583 M254.917 192.583 C 274.212 192.631,305.787 192.631,325.083 192.583 C 344.379 192.536,328.592 192.497,290.000 192.497 C 251.408 192.497,235.621 192.536,254.917 192.583 M185.917 266.917 C 193.663 266.966,206.338 266.966,214.083 266.917 C 221.829 266.867,215.492 266.826,200.000 266.826 C 184.508 266.826,178.171 266.867,185.917 266.917 " stroke="none" fill="#949c9c" fill-rule="evenodd"></path><path id="path2" d="M150.802 151.500 C 150.802 154.433,150.853 155.589,150.915 154.068 C 150.977 152.546,150.976 150.146,150.914 148.734 C 150.852 147.322,150.801 148.567,150.802 151.500 M267.135 151.500 C 267.135 154.433,267.186 155.589,267.248 154.068 C 267.310 152.546,267.310 150.146,267.247 148.734 C 267.185 147.322,267.135 148.567,267.135 151.500 M139.750 148.239 C 140.254 148.315,141.079 148.315,141.583 148.239 C 142.087 148.162,141.675 148.100,140.667 148.100 C 139.658 148.100,139.246 148.162,139.750 148.239 M256.083 148.239 C 256.587 148.315,257.412 148.315,257.917 148.239 C 258.421 148.162,258.008 148.100,257.000 148.100 C 255.992 148.100,255.579 148.162,256.083 148.239 M102.100 150.667 C 102.100 151.675,102.162 152.087,102.239 151.583 C 102.315 151.079,102.315 150.254,102.239 149.750 C 102.162 149.246,102.100 149.658,102.100 150.667 " stroke="none" fill="#c4c4c4" fill-rule="evenodd"></path><path id="path3" d="M297.450 141.333 C 297.450 142.892,297.507 143.529,297.577 142.750 C 297.648 141.971,297.648 140.696,297.577 139.917 C 297.507 139.137,297.450 139.775,297.450 141.333 M123.744 140.333 C 123.744 140.975,123.813 141.237,123.896 140.917 C 123.980 140.596,123.980 140.071,123.896 139.750 C 123.813 139.429,123.744 139.692,123.744 140.333 M240.744 142.333 C 240.744 142.975,240.813 143.237,240.896 142.917 C 240.980 142.596,240.980 142.071,240.896 141.750 C 240.813 141.429,240.744 141.692,240.744 142.333 M117.424 150.333 C 117.424 151.158,117.489 151.496,117.569 151.083 C 117.648 150.671,117.648 149.996,117.569 149.583 C 117.489 149.171,117.424 149.508,117.424 150.333 M117.246 158.583 C 117.176 158.721,117.224 159.283,117.353 159.833 C 117.584 160.817,117.588 160.812,117.627 159.583 C 117.665 158.396,117.526 158.032,117.246 158.583 M170.254 158.902 C 170.669 158.982,171.269 158.979,171.587 158.896 C 171.906 158.812,171.567 158.747,170.833 158.751 C 170.100 158.754,169.839 158.823,170.254 158.902 M344.587 158.902 C 345.002 158.982,345.602 158.979,345.921 158.896 C 346.239 158.812,345.900 158.747,345.167 158.751 C 344.433 158.754,344.173 158.823,344.587 158.902 M194.750 191.563 C 195.071 191.647,195.596 191.647,195.917 191.563 C 196.237 191.479,195.975 191.411,195.333 191.411 C 194.692 191.411,194.429 191.479,194.750 191.563 M185.917 271.583 C 193.663 271.633,206.338 271.633,214.083 271.583 C 221.829 271.533,215.492 271.493,200.000 271.493 C 184.508 271.493,178.171 271.533,185.917 271.583 M185.917 276.583 C 193.663 276.633,206.338 276.633,214.083 276.583 C 221.829 276.533,215.492 276.493,200.000 276.493 C 184.508 276.493,178.171 276.533,185.917 276.583 " stroke="none" fill="#646c74" fill-rule="evenodd"></path><path id="path4" d="M0.000 200.000 L 0.000 400.000 200.000 400.000 L 400.000 400.000 400.000 200.000 L 400.000 0.000 200.000 0.000 L 0.000 0.000 0.000 200.000 M312.745 139.201 L 312.833 148.402 316.923 143.701 L 321.014 139.000 324.340 139.000 C 326.170 139.000,327.667 139.067,327.667 139.150 C 327.667 139.232,325.861 141.284,323.653 143.709 C 321.446 146.133,319.710 148.298,319.795 148.519 C 319.879 148.740,321.835 151.938,324.141 155.626 C 326.447 159.313,328.333 162.406,328.333 162.498 C 328.333 162.591,326.795 162.667,324.916 162.667 L 321.498 162.667 318.499 157.513 C 315.175 151.801,315.434 152.046,313.833 153.083 L 312.675 153.833 312.671 158.250 L 312.667 162.667 309.500 162.667 L 306.333 162.667 306.333 146.333 L 306.333 130.000 309.495 130.000 L 312.656 130.000 312.745 139.201 M48.624 134.083 C 49.642 137.302,54.015 152.073,54.367 153.484 C 54.879 155.533,54.561 156.332,58.374 143.417 L 61.449 133.000 64.891 133.000 C 66.784 133.000,68.333 133.060,68.333 133.134 C 68.333 133.207,66.083 139.842,63.333 147.878 C 60.583 155.913,58.333 162.528,58.333 162.577 C 58.333 162.626,56.788 162.667,54.899 162.667 L 51.464 162.667 46.518 148.250 C 43.798 140.321,41.503 133.646,41.417 133.417 C 41.299 133.100,42.103 133.000,44.772 133.000 L 48.282 133.000 48.624 134.083 M235.576 133.959 C 242.843 137.226,242.589 148.026,235.167 151.389 C 233.801 152.008,232.763 152.167,229.417 152.273 L 225.333 152.402 225.333 157.534 L 225.333 162.667 222.000 162.667 L 218.667 162.667 218.667 147.806 L 218.667 132.945 226.250 133.061 C 233.359 133.169,233.942 133.225,235.576 133.959 M225.333 142.621 L 225.333 147.333 227.417 147.307 C 232.179 147.245,234.000 145.915,234.000 142.496 C 234.000 139.385,232.759 138.459,228.132 138.116 L 225.333 137.908 225.333 142.621 M88.470 139.017 C 92.175 140.404,94.593 144.276,95.173 149.750 L 95.411 152.000 87.226 152.000 L 79.042 152.000 79.228 153.250 C 79.545 155.374,80.543 157.268,81.727 157.990 C 83.934 159.335,87.903 158.547,88.507 156.643 C 88.725 155.957,93.942 155.831,94.607 156.496 C 94.975 156.864,93.794 158.768,92.372 160.098 C 86.920 165.198,76.757 163.547,73.758 157.074 C 68.646 146.041,77.663 134.974,88.470 139.017 M146.667 139.139 C 150.340 141.045,150.783 142.253,150.994 150.944 C 151.185 158.799,151.310 159.211,153.417 158.912 C 154.525 158.755,154.885 162.050,153.805 162.465 C 150.231 163.836,145.667 162.192,145.667 159.532 C 145.667 158.708,145.329 158.885,144.051 160.379 C 139.491 165.706,131.065 163.102,130.725 156.260 C 130.435 150.436,133.546 148.000,141.274 148.000 L 144.760 148.000 144.565 146.109 C 144.145 142.046,139.321 140.927,138.492 144.701 L 138.280 145.667 135.130 145.667 C 131.365 145.667,131.190 145.480,132.483 142.837 C 134.435 138.848,142.203 136.823,146.667 139.139 M175.712 138.907 C 178.404 139.771,181.978 143.812,180.948 144.828 C 180.471 145.298,175.333 145.370,175.333 144.906 C 175.333 142.173,167.789 141.775,166.846 144.458 C 166.331 145.921,167.585 146.776,171.565 147.677 C 180.564 149.713,183.623 153.312,180.917 158.679 C 177.566 165.323,161.801 164.270,160.155 157.292 C 159.929 156.333,160.046 156.286,163.833 155.817 C 165.456 155.616,165.512 155.638,165.948 156.646 C 167.331 159.842,175.667 159.393,175.667 156.123 C 175.667 154.583,174.908 154.178,169.542 152.850 C 162.213 151.036,159.984 148.686,161.058 143.905 C 162.086 139.332,169.334 136.860,175.712 138.907 M263.000 139.139 C 266.674 141.045,267.116 142.253,267.327 150.944 C 267.518 158.799,267.643 159.211,269.750 158.912 C 270.858 158.755,271.219 162.050,270.138 162.465 C 266.564 163.836,262.000 162.192,262.000 159.532 C 262.000 158.708,261.662 158.885,260.384 160.379 C 255.828 165.701,247.465 163.124,247.066 156.274 C 246.728 150.467,249.871 148.000,257.607 148.000 L 261.093 148.000 260.898 146.109 C 260.479 142.046,255.655 140.927,254.826 144.701 L 254.614 145.667 251.463 145.667 C 247.698 145.667,247.524 145.480,248.817 142.837 C 250.768 138.848,258.536 136.823,263.000 139.139 M296.917 138.543 C 297.613 138.730,297.667 138.930,297.667 141.341 L 297.667 143.937 294.417 143.775 C 287.323 143.421,285.333 146.452,285.333 157.611 L 285.333 162.667 282.167 162.667 L 279.000 162.667 278.988 153.750 C 278.980 147.472,278.834 144.044,278.495 142.167 C 278.230 140.700,278.010 139.382,278.007 139.237 C 278.003 139.093,279.380 139.018,281.067 139.071 L 284.134 139.167 284.702 141.333 C 285.014 142.525,285.283 143.309,285.301 143.076 C 285.551 139.789,292.070 137.245,296.917 138.543 M350.045 138.907 C 352.737 139.771,356.311 143.812,355.282 144.828 C 354.805 145.298,349.667 145.370,349.667 144.906 C 349.667 142.173,342.123 141.775,341.179 144.458 C 340.665 145.921,341.919 146.776,345.899 147.677 C 354.898 149.713,357.957 153.312,355.250 158.679 C 351.900 165.323,336.134 164.270,334.488 157.292 C 334.262 156.333,334.379 156.286,338.167 155.817 C 339.789 155.616,339.845 155.638,340.281 156.646 C 341.664 159.842,350.000 159.393,350.000 156.123 C 350.000 154.583,349.241 154.178,343.876 152.850 C 336.547 151.036,334.318 148.686,335.392 143.905 C 336.419 139.332,343.667 136.860,350.045 138.907 M113.915 139.179 C 115.393 139.797,116.223 140.500,117.046 141.833 L 117.664 142.833 117.665 140.917 L 117.667 139.000 120.750 139.000 L 123.833 139.000 123.747 148.083 C 123.573 166.365,123.621 165.607,122.519 167.600 C 118.705 174.499,104.848 173.802,103.155 166.626 C 102.914 165.604,103.165 165.504,106.861 165.151 L 109.221 164.925 109.644 165.946 C 110.227 167.354,111.506 168.108,113.264 168.081 C 116.025 168.040,117.333 165.965,117.333 161.628 L 117.333 158.901 116.301 159.981 C 112.196 164.277,105.136 162.716,102.964 157.033 C 98.988 146.631,105.671 135.735,113.915 139.179 M81.768 142.985 C 80.387 143.827,79.650 144.981,79.426 146.654 L 79.246 148.000 84.160 148.000 L 89.074 148.000 88.842 146.750 C 88.168 143.112,84.640 141.234,81.768 142.985 M111.463 143.327 C 107.806 144.804,107.653 155.368,111.258 157.443 C 114.762 159.459,117.539 155.925,117.276 149.782 C 117.053 144.581,114.734 142.005,111.463 143.327 M140.167 151.719 C 137.970 152.047,137.333 152.834,137.333 155.219 C 137.333 160.940,143.963 159.056,144.571 153.163 L 144.764 151.298 143.298 151.384 C 142.493 151.431,141.083 151.582,140.167 151.719 M256.500 151.719 C 254.304 152.047,253.667 152.834,253.667 155.219 C 253.667 160.940,260.296 159.056,260.904 153.163 L 261.097 151.298 259.632 151.384 C 258.826 151.431,257.417 151.582,256.500 151.719 M201.336 188.007 C 202.635 191.609,202.221 191.314,206.323 191.564 C 210.386 191.811,210.405 191.893,207.036 194.643 L 204.411 196.785 205.201 199.643 C 206.505 204.356,206.479 204.380,202.730 202.000 C 199.550 199.981,200.050 199.981,196.899 202.000 C 193.187 204.378,193.157 204.349,194.454 199.634 L 195.241 196.773 192.623 194.637 C 189.590 192.161,189.395 191.667,191.451 191.667 C 195.269 191.667,197.038 191.278,197.374 190.366 C 199.759 183.888,199.835 183.843,201.336 188.007 M180.000 196.167 L 180.000 200.000 110.000 200.000 L 40.000 200.000 40.000 196.167 L 40.000 192.333 110.000 192.333 L 180.000 192.333 180.000 196.167 M360.000 196.167 L 360.000 200.000 290.000 200.000 L 220.000 200.000 220.000 196.167 L 220.000 192.333 290.000 192.333 L 360.000 192.333 360.000 196.167 M191.401 225.017 C 191.822 225.210,194.639 228.867,197.661 233.143 L 203.154 240.918 204.494 239.380 C 210.380 232.618,211.019 232.000,212.104 232.005 C 213.586 232.012,213.052 231.416,221.942 242.980 C 230.745 254.428,230.974 254.852,229.122 256.309 C 227.066 257.926,226.939 257.814,218.850 247.250 C 215.236 242.529,212.162 238.667,212.020 238.667 C 211.748 238.667,206.333 244.801,206.333 245.109 C 206.333 245.208,206.809 246.054,207.390 246.989 C 208.616 248.962,208.240 250.760,206.510 251.194 C 204.668 251.656,204.331 251.295,197.332 241.348 C 193.589 236.028,190.426 231.785,190.303 231.921 C 190.181 232.056,186.476 237.583,182.069 244.203 C 177.663 250.823,173.808 256.336,173.502 256.453 C 171.837 257.092,170.000 255.948,170.000 254.272 C 170.000 253.233,188.128 225.679,189.236 225.035 C 190.003 224.588,190.456 224.585,191.401 225.017 M229.333 262.667 C 230.326 263.659,230.222 265.443,229.122 266.309 C 228.074 267.133,172.767 267.427,171.228 266.617 C 169.739 265.833,169.452 263.422,170.741 262.519 C 172.048 261.603,228.412 261.745,229.333 262.667 M229.298 272.135 C 230.252 272.998,230.252 275.002,229.298 275.865 C 228.620 276.479,227.653 276.500,200.000 276.500 C 172.347 276.500,171.380 276.479,170.702 275.865 C 169.363 274.654,169.909 272.223,171.667 271.567 C 173.280 270.964,228.608 271.510,229.298 272.135 " stroke="none" fill="#3c3c44" fill-rule="evenodd"></path></g></svg>